<svg width="1003" height="460" viewBox="0 0 1003 460" fill="none" xmlns="http://www.w3.org/2000/svg">
<path d="M184.383 46.9878C89.7513 46.9878 12.9884 123.525 12.9884 218C12.9884 312.474 89.7513 389.012 184.383 389.012H419.617C514.249 389.012 591.012 312.474 591.012 218C591.012 123.525 514.249 46.9878 419.617 46.9878H184.383Z" stroke="white" stroke-width="24"/>
<path d="M423.858 78.2822C346.628 78.2822 284.021 140.836 284.021 218C284.021 295.164 346.628 357.718 423.858 357.718C501.089 357.718 563.696 295.164 563.696 218C563.696 140.836 501.089 78.2822 423.858 78.2822Z" fill="white"/>
<path d="M619.469 81.0859H665.367L810.289 313.508V81.0859H847.203V368H803.648L656.578 135.773V368H619.469V81.0859Z" fill="white"/>
<path d="M935.051 332.872C935.051 339.88 934.111 346.12 932.231 351.59C930.35 357.026 927.53 361.299 923.769 364.41C920.043 367.487 915.376 369.026 909.769 369.026C904.197 369.026 899.53 367.521 895.769 364.513C892.009 361.47 889.188 357.248 887.308 351.846C885.427 346.444 884.487 340.171 884.487 333.026C884.487 325.983 885.427 319.726 887.308 314.256C889.188 308.752 892.009 304.427 895.769 301.282C899.53 298.137 904.197 296.564 909.769 296.564C915.376 296.564 920.043 298.103 923.769 301.179C927.53 304.222 930.35 308.479 932.231 313.949C934.111 319.385 935.051 325.692 935.051 332.872ZM928.077 332.872C928.077 323.265 926.658 315.829 923.821 310.564C920.983 305.265 916.299 302.615 909.769 302.615C903.239 302.615 898.556 305.282 895.718 310.615C892.88 315.949 891.462 323.419 891.462 333.026C891.462 342.598 892.932 349.983 895.872 355.179C898.812 360.376 903.444 362.974 909.769 362.974C916.265 362.974 920.932 360.376 923.769 355.179C926.641 349.949 928.077 342.513 928.077 332.872ZM994.575 348.821C994.575 354.735 992.421 359.59 988.113 363.385C983.805 367.145 977.669 369.026 969.703 369.026C965.019 369.026 960.626 368.291 956.523 366.821C952.455 365.35 948.934 363.197 945.959 360.359L950.267 355.436C952.66 357.726 955.447 359.573 958.626 360.974C961.805 362.342 965.617 363.026 970.062 363.026C973.07 363.026 975.925 362.513 978.626 361.487C981.327 360.462 983.532 358.889 985.241 356.769C986.951 354.65 987.805 351.949 987.805 348.667C987.805 346.205 987.344 344.12 986.421 342.41C985.498 340.667 983.857 339.128 981.498 337.795C979.139 336.427 975.823 335.128 971.549 333.897C967.173 332.632 963.276 331.197 959.857 329.59C956.438 327.949 953.754 325.897 951.805 323.436C949.857 320.94 948.882 317.795 948.882 314C948.882 310.718 949.771 307.761 951.549 305.128C953.361 302.496 955.891 300.41 959.139 298.872C962.387 297.333 966.199 296.564 970.575 296.564C975.258 296.564 979.31 297.231 982.729 298.564C986.182 299.897 989.361 301.812 992.267 304.308L987.857 309.128C985.293 306.803 982.523 305.128 979.549 304.103C976.609 303.077 973.617 302.564 970.575 302.564C967.874 302.564 965.378 302.991 963.088 303.846C960.797 304.667 958.951 305.915 957.549 307.59C956.147 309.265 955.447 311.402 955.447 314C955.447 316.188 956.028 318.085 957.19 319.692C958.352 321.265 960.301 322.718 963.036 324.051C965.805 325.35 969.532 326.684 974.216 328.051C977.635 329.009 980.9 330.239 984.011 331.744C987.122 333.214 989.652 335.299 991.6 338C993.583 340.667 994.575 344.274 994.575 348.821Z" fill="white"/>
<path d="M899.289 52.6172L906.516 72.8906L913.82 52.6172H921.867V80.9375H916.672V58.0859L908.82 80.9375H904.289L896.398 58.0859V80.9375H891.203V52.6172H899.289ZM862.258 57.3438V52.6172H886.398V57.3438H877.141V80.9375H871.516V57.3438H862.258Z" fill="white"/>
</svg>
